<svg xmlns="http://www.w3.org/2000/svg" width="1440" height="1560" viewBox="0 0 1440 1560">
  <defs>
    <linearGradient id="red" x1="0" y1="0" x2="0" y2="1">
      <stop offset="0" stop-color="#FF6B5E"/><stop offset="1" stop-color="#D0021B"/>
    </linearGradient>
    <linearGradient id="redSoft" x1="0" y1="0" x2="1" y2="1">
      <stop offset="0" stop-color="#FF3B30" stop-opacity=".22"/>
      <stop offset="1" stop-color="#FF3B30" stop-opacity="0"/>
    </linearGradient>
    <linearGradient id="cardG" x1="0" y1="0" x2="0" y2="1">
      <stop offset="0" stop-color="#1A1A20"/><stop offset="1" stop-color="#121216"/>
    </linearGradient>
    <linearGradient id="glassG" x1="0" y1="0" x2="0" y2="1">
      <stop offset="0" stop-color="#FFFFFF" stop-opacity=".07"/>
      <stop offset="1" stop-color="#FFFFFF" stop-opacity="0"/>
    </linearGradient>
    <linearGradient id="barG" x1="0" y1="0" x2="1" y2="0">
      <stop offset="0" stop-color="#B3271F"/><stop offset=".6" stop-color="#FF3B30"/>
      <stop offset="1" stop-color="#FF8A7E"/>
    </linearGradient>
    <linearGradient id="avA" x1="0" y1="0" x2="1" y2="1">
      <stop offset="0" stop-color="#FF8A5B"/><stop offset="1" stop-color="#D0021B"/></linearGradient>
    <linearGradient id="avB" x1="0" y1="0" x2="1" y2="1">
      <stop offset="0" stop-color="#5AC8FA"/><stop offset="1" stop-color="#0A84FF"/></linearGradient>
    <linearGradient id="avC" x1="0" y1="0" x2="1" y2="1">
      <stop offset="0" stop-color="#BF5AF2"/><stop offset="1" stop-color="#6E2CA8"/></linearGradient>
    <linearGradient id="avD" x1="0" y1="0" x2="1" y2="1">
      <stop offset="0" stop-color="#32D74B"/><stop offset="1" stop-color="#0F7A32"/></linearGradient>

    <radialGradient id="halo" cx=".5" cy=".5" r=".5">
      <stop offset="0" stop-color="#FF3B30" stop-opacity=".30"/>
      <stop offset="1" stop-color="#FF3B30" stop-opacity="0"/>
    </radialGradient>

    <filter id="shadow" x="-30%" y="-30%" width="160%" height="180%">
      <feDropShadow dx="0" dy="10" stdDeviation="18" flood-color="#000" flood-opacity=".55"/>
    </filter>
    <filter id="shadowSm" x="-30%" y="-30%" width="160%" height="180%">
      <feDropShadow dx="0" dy="3" stdDeviation="6" flood-color="#000" flood-opacity=".45"/>
    </filter>
    <filter id="glowRed" x="-60%" y="-60%" width="220%" height="240%">
      <feDropShadow dx="0" dy="4" stdDeviation="10" flood-color="#FF3B30" flood-opacity=".45"/>
    </filter>
    <filter id="blur18"><feGaussianBlur stdDeviation="18"/></filter>
    <filter id="blur6"><feGaussianBlur stdDeviation="6"/></filter>

    <clipPath id="clip16x9"><rect width="100" height="56" rx="8"/></clipPath>
  </defs>

  <style>
    text { font-family:'Plus Jakarta Sans','Inter',-apple-system,'Segoe UI',Roboto,sans-serif; }
    .d1  { font-size:44px; font-weight:800; fill:#FFFFFF; letter-spacing:-1.2px }
    .d2  { font-size:32px; font-weight:800; fill:#FFFFFF; letter-spacing:-.8px }
    .h1  { font-size:23px; font-weight:800; fill:#FFFFFF; letter-spacing:-.4px }
    .h2  { font-size:16px; font-weight:700; fill:#FFFFFF; letter-spacing:-.2px }
    .h3  { font-size:14px; font-weight:700; fill:#FFFFFF }
    .num { font-size:42px; font-weight:800; fill:#FFFFFF; letter-spacing:-1.5px }
    .body{ font-size:13px; fill:#C9C9D1 }
    .sub { font-size:12.5px; fill:#8B8B95 }
    .mut { font-size:11.5px; fill:#5C5C66 }
    .lbl { font-size:10px; font-weight:700; fill:#8B8B95; letter-spacing:.11em }
    .nav { font-size:13.5px; font-weight:600; fill:#8B8B95 }
    .navOn{font-size:13.5px; font-weight:700; fill:#FFFFFF }
    .btnT{ font-size:13.5px; font-weight:700; fill:#FFFFFF }
    .link{ font-size:12.5px; font-weight:700; fill:#FF3B30 }
    .mono{ font-family:'JetBrains Mono','SF Mono',ui-monospace,Menlo,monospace; font-size:11.5px; fill:#8B8B95 }
    .note{ font-size:11px; fill:#5C5C66; font-style:italic }
  </style>
<rect width="1440" height="1560" fill="#08080A"/><rect width="1440" height="68" fill="#0B0B0E"/><line x1="0" y1="68" x2="1440" y2="68" stroke="#1C1C21"/><g transform="translate(36,17) scale(1.0)"><rect width="34" height="34" rx="10" fill="url(#red)" filter="url(#glowRed)"/><rect width="34" height="34" rx="10" fill="url(#glassG)"/><path d="M13.5 10 L24 17 L13.5 24 Z" fill="#fff"/><text x="44" y="24" font-size="18" font-weight="800" fill="#fff" letter-spacing="-.4">Gen<tspan fill="#FF3B30">Tube</tspan></text></g><rect x="300" y="19" width="300" height="31" rx="10" fill="#101014" stroke="#232329"/><g transform="translate(309,27)"><g fill="none" stroke="#5C5C66" stroke-width="1.6" stroke-linecap="round" stroke-linejoin="round"><circle cx="11" cy="11" r="6.5"/><path d="M16 16l4.5 4.5"/></g></g><text x="338" y="39" font-size="12.5" fill="#5C5C66">Rechercher un projet, une vidéo…</text><rect x="558" y="26" width="30" height="17" rx="5" fill="#1A1A20" stroke="#2A2A31"/><text x="573" y="38" font-size="10" font-weight="700" fill="#5C5C66" text-anchor="middle">⌘K</text><rect x="1200" y="19" width="158" height="31" rx="15.5" fill="#1A1A20" stroke="#2E2E36"/><g transform="translate(1210,27)"><g fill="none" stroke="#FF3B30" stroke-width="1.6" stroke-linecap="round" stroke-linejoin="round"><path d="M13 2.5L5 13.5h6l-1 8 8-11h-6z"/></g></g><text x="1238" y="39" font-size="12.5" font-weight="800" fill="#fff">5 400</text><text x="1348" y="38.5" font-size="10" font-weight="800" fill="#FF3B30" text-anchor="end">RECHARGER</text><circle cx="1396" cy="34" r="17" fill="url(#avA)"/><circle cx="1396" cy="34" r="17" fill="none" stroke="#FFFFFF" stroke-opacity=".18"/><text x="1396" y="39.8" font-size="13" font-weight="800" fill="#fff" text-anchor="middle">AM</text><circle cx="1407" cy="45" r="5" fill="#32D74B" stroke="#0B0B0E" stroke-width="2"/><rect x="0" y="68" width="258" height="1492" fill="#0A0A0D"/><line x1="258" y1="68" x2="258" y2="1560" stroke="#1C1C21"/><rect x="14" y="86" width="230" height="52" rx="12" fill="#131316" stroke="#26262C"/><circle cx="40" cy="112" r="15" fill="url(#avC)"/><circle cx="40" cy="112" r="15" fill="none" stroke="#FFFFFF" stroke-opacity=".18"/><text x="40" y="117.1" font-size="12" font-weight="800" fill="#fff" text-anchor="middle">SC</text><text x="64" y="108" font-size="13" font-weight="700" fill="#fff">Studio Cotonou</text><text x="64" y="124" font-size="11" fill="#8B8B95">Plan Pro</text><g transform="translate(210,100)"><g fill="none" stroke="#5C5C66" stroke-width="1.6" stroke-linecap="round" stroke-linejoin="round"><path d="M8.5 10l3.5 3.5L15.5 10"/></g></g><g transform="translate(32,168)"><g fill="none" stroke="#8B8B95" stroke-width="1.7" stroke-linecap="round" stroke-linejoin="round"><circle cx="9" cy="7.5" r="3.2"/><path d="M3 18.5c0-3.6 2.7-6.2 6-6.2s6 2.6 6 6.2"/><circle cx="16.6" cy="8.4" r="2.5"/><path d="M16 12.8c2.8.4 4.7 2.6 4.7 5.7"/></g></g><text x="66" y="185" class="nav">Équipe</text><g transform="translate(32,214)"><g fill="none" stroke="#8B8B95" stroke-width="1.7" stroke-linecap="round" stroke-linejoin="round"><rect x="2.5" y="4.5" width="19" height="15" rx="3.5"/><path d="M10 9.2l6 2.8-6 2.8z"/></g></g><text x="66" y="231" class="nav">Projets</text><g transform="translate(32,260)"><g fill="none" stroke="#8B8B95" stroke-width="1.7" stroke-linecap="round" stroke-linejoin="round"><circle cx="12" cy="12" r="3.2"/><path d="M12 2.8v2.6M12 18.6v2.6M21.2 12h-2.6M5.4 12H2.8M18.5 5.5l-1.8 1.8M7.3 16.7l-1.8 1.8M18.5 18.5l-1.8-1.8M7.3 7.3L5.5 5.5"/></g></g><text x="66" y="277" class="nav">Général</text><rect x="14" y="298" width="230" height="40" rx="11" fill="#1A1A1F" stroke="#2C2C34"/><rect x="14" y="307" width="3" height="22" rx="1.5" fill="#FF3B30"/><g transform="translate(32,306)"><g fill="none" stroke="#FF3B30" stroke-width="1.7" stroke-linecap="round" stroke-linejoin="round"><rect x="2.5" y="5" width="19" height="14" rx="3"/><path d="M2.5 9.6h19"/></g></g><text x="66" y="323" class="navOn">Facturation</text><g transform="translate(32,352)"><g fill="none" stroke="#8B8B95" stroke-width="1.7" stroke-linecap="round" stroke-linejoin="round"><path d="M2.5 12h4l3-7 4.5 14 3-7h4.5"/></g></g><text x="66" y="369" class="nav">Activité</text><g transform="translate(32,398)"><g fill="none" stroke="#8B8B95" stroke-width="1.7" stroke-linecap="round" stroke-linejoin="round"><path d="M12 3l8 3v5.6c0 5-3.2 8.4-8 10-4.8-1.6-8-5-8-10V6z"/></g></g><text x="66" y="415" class="nav">Sécurité</text><rect x="14" y="1428" width="230" height="106" rx="14" fill="#131316" stroke="#26262C"/><rect x="14" y="1428" width="230" height="106" rx="14" fill="url(#redSoft)"/><text x="32" y="1454" class="lbl">CRÉDITS RESTANTS</text><text x="32" y="1484" font-size="26" font-weight="800" fill="#fff">5 400</text><text x="122" y="1484" font-size="11" fill="#8B8B95">≈ 45 min animées</text><rect x="32" y="1496" width="194" height="8" rx="4.0" fill="#232329"/><rect x="32" y="1496" width="124.2" height="8" rx="4.0" fill="url(#barG)"/><text x="32" y="1520" font-size="11" fill="#8B8B95">3 450 / 5 400 ce cycle</text><text x="298" y="132" class="h1">Facturation</text><text x="298" y="156" class="sub">Mobile money ou carte, en FCFA, via GeniusPay.</text><rect x="298" y="184" width="1102" height="50" rx="12" fill="#32D74B" fill-opacity=".10" stroke="#32D74B" stroke-opacity=".3"/><g transform="translate(318,197)"><g fill="none" stroke="#32D74B" stroke-width="2" stroke-linecap="round" stroke-linejoin="round"><path d="M5 12.6l4.6 4.4L19 7"/></g></g><text x="352" y="215" class="body" fill="#32D74B">Paiement reçu. Les crédits apparaissent dès que GeniusPay confirme — quelques secondes en général.</text><rect x="298" y="254" width="726" height="210" rx="18" fill="url(#cardG)" stroke="#26262C" filter="url(#shadow)"/><rect x="298" y="254" width="726" height="60" rx="18" fill="url(#glassG)" pointer-events="none"/><text x="326" y="292" class="lbl">Plan courant</text><text x="326" y="334" class="d2" font-size="30">Pro</text><rect x="390" y="312" width="58" height="22" rx="11" fill="#32D74B" fill-opacity=".14" stroke="#32D74B" stroke-opacity=".35"/><circle cx="401" cy="323" r="3" fill="#32D74B"/><text x="410" y="327" font-size="11" font-weight="700" fill="#32D74B">actif</text><rect x="466" y="312" width="206" height="22" rx="11" fill="#FFB340" fill-opacity=".14" stroke="#FFB340" stroke-opacity=".35"/><text x="478" y="327" font-size="11" font-weight="700" fill="#FFB340">★ Tarif fondateur — figé 1 an</text><text x="326" y="366" class="sub">Renouvellement le 12 septembre 2026 · 30 000 FCFA/mois</text><text x="326" y="424" class="link">Voir les factures et les mouvements de crédits  →</text><line x1="744" y1="284" x2="744" y2="434" stroke="#1C1C21"/><text x="996" y="336" class="num" text-anchor="end">5 400</text><text x="996" y="360" class="sub" text-anchor="end">crédits ≈ 45 min animées</text><rect x="776" y="384" width="220" height="8" rx="4.0" fill="#232329"/><rect x="776" y="384" width="140.8" height="8" rx="4.0" fill="url(#barG)"/><text x="776" y="414" class="mut">3 450 / 5 400 utilisés ce cycle</text><rect x="1050" y="254" width="350" height="210" rx="18" fill="url(#cardG)" stroke="#26262C" filter="url(#shadow)"/><rect x="1050" y="254" width="350" height="60" rx="18" fill="url(#glassG)" pointer-events="none"/><text x="1078" y="292" class="h2">Deux poches</text><rect x="1078" y="312" width="294" height="66" rx="12" fill="#0F0F13" stroke="#1C1C21"/><rect x="1078" y="312" width="4" height="66" rx="2" fill="#FFB340"/><text x="1098" y="338" class="sub">Quota du plan</text><text x="1098" y="364" font-size="22" font-weight="800" fill="#fff">4 680</text><text x="1354" y="352" class="mut" text-anchor="end">expire le 12 sept.</text><rect x="1078" y="390" width="294" height="66" rx="12" fill="#0F0F13" stroke="#1C1C21"/><rect x="1078" y="390" width="4" height="66" rx="2" fill="#32D74B"/><text x="1098" y="416" class="sub">Crédits achetés</text><text x="1098" y="442" font-size="22" font-weight="800" fill="#fff">720</text><text x="1354" y="430" class="mut" text-anchor="end">n’expirent jamais</text><rect x="298" y="501" width="3" height="14" rx="1.5" fill="#FF3B30"/><text x="310" y="512" class="lbl">CHANGER DE PLAN</text><rect x="298" y="534" width="356" height="268" rx="18" fill="url(#cardG)" stroke="#26262C" filter="url(#shadow)"/><rect x="298" y="534" width="356" height="60" rx="18" fill="url(#glassG)" pointer-events="none"/><text x="322" y="574" class="h2">Starter</text><text x="322" y="620" class="d2" font-size="30">15 000</text><text x="430" y="620" class="sub">FCFA /mois</text><rect x="322" y="646" width="16" height="16" rx="5" fill="#8B8B95"/><path d="M326 654 l3 3 5.5-6" fill="none" stroke="#08080A" stroke-width="2.2" stroke-linecap="round" stroke-linejoin="round"/><text x="348" y="659" class="sub">2 640 crédits ≈ 22 min animées</text><rect x="322" y="676" width="16" height="16" rx="5" fill="#8B8B95"/><path d="M326 684 l3 3 5.5-6" fill="none" stroke="#08080A" stroke-width="2.2" stroke-linecap="round" stroke-linejoin="round"/><text x="348" y="689" class="sub">Voix Amazon Polly</text><rect x="322" y="706" width="16" height="16" rx="5" fill="#8B8B95"/><path d="M326 714 l3 3 5.5-6" fill="none" stroke="#08080A" stroke-width="2.2" stroke-linecap="round" stroke-linejoin="round"/><text x="348" y="719" class="sub">Publication YouTube</text><g><rect x="322" y="748" width="308" height="42" rx="12" fill="url(#red)" stroke="none" filter="url(#glowRed)"/><rect x="322" y="748" width="308" height="21.0" rx="12" fill="url(#glassG)"/><text x="476.0" y="773.5" class="btnT" fill="#FFFFFF" text-anchor="middle">Payer 15 000 FCFA</text></g><rect x="678" y="534" width="356" height="268" rx="18" fill="url(#cardG)" stroke="#FF3B30" filter="url(#shadow)"/><rect x="678" y="534" width="356" height="60" rx="18" fill="url(#glassG)" pointer-events="none"/><rect x="910" y="554" width="103" height="22" rx="11" fill="#FF3B30" fill-opacity=".14" stroke="#FF3B30" stroke-opacity=".35"/><text x="922" y="569" font-size="11" font-weight="700" fill="#FF3B30">· PLAN ACTUEL</text><text x="702" y="574" class="h2">Pro</text><text x="702" y="620" class="d2" font-size="30">30 000</text><text x="810" y="620" class="sub">FCFA /mois</text><rect x="702" y="646" width="16" height="16" rx="5" fill="#32D74B"/><path d="M706 654 l3 3 5.5-6" fill="none" stroke="#08080A" stroke-width="2.2" stroke-linecap="round" stroke-linejoin="round"/><text x="728" y="659" class="sub">5 400 crédits ≈ 45 min animées</text><rect x="702" y="676" width="16" height="16" rx="5" fill="#32D74B"/><path d="M706 684 l3 3 5.5-6" fill="none" stroke="#08080A" stroke-width="2.2" stroke-linecap="round" stroke-linejoin="round"/><text x="728" y="689" class="sub">Voix ElevenLabs</text><rect x="702" y="706" width="16" height="16" rx="5" fill="#32D74B"/><path d="M706 714 l3 3 5.5-6" fill="none" stroke="#08080A" stroke-width="2.2" stroke-linecap="round" stroke-linejoin="round"/><text x="728" y="719" class="sub">Publication et statistiques</text><g opacity=".38"><rect x="702" y="748" width="308" height="42" rx="12" fill="#212127" stroke="#26262C"/><text x="856.0" y="773.5" class="btnT" fill="#FFFFFF" text-anchor="middle">Plan actuel</text></g><rect x="1058" y="534" width="356" height="268" rx="18" fill="url(#cardG)" stroke="#26262C" filter="url(#shadow)"/><rect x="1058" y="534" width="356" height="60" rx="18" fill="url(#glassG)" pointer-events="none"/><text x="1082" y="574" class="h2">Business</text><text x="1082" y="620" class="d2" font-size="26">Sur devis</text><rect x="1082" y="646" width="16" height="16" rx="5" fill="#8B8B95"/><path d="M1086 654 l3 3 5.5-6" fill="none" stroke="#08080A" stroke-width="2.2" stroke-linecap="round" stroke-linejoin="round"/><text x="1108" y="659" class="sub">Crédits négociés par contrat</text><rect x="1082" y="676" width="16" height="16" rx="5" fill="#8B8B95"/><path d="M1086 684 l3 3 5.5-6" fill="none" stroke="#08080A" stroke-width="2.2" stroke-linecap="round" stroke-linejoin="round"/><text x="1108" y="689" class="sub">Plusieurs chaînes</text><rect x="1082" y="706" width="16" height="16" rx="5" fill="#8B8B95"/><path d="M1086 714 l3 3 5.5-6" fill="none" stroke="#08080A" stroke-width="2.2" stroke-linecap="round" stroke-linejoin="round"/><text x="1108" y="719" class="sub">Accompagnement dédié</text><g><rect x="1082" y="748" width="308" height="42" rx="12" fill="none" stroke="#3A3A42"/><text x="1236.0" y="773.5" class="btnT" fill="#C9C9D1" text-anchor="middle">Nous contacter</text></g><text x="298" y="826" class="note">Un changement de plan prend effet au paiement confirmé — jamais au clic.</text><rect x="298" y="869" width="3" height="14" rx="1.5" fill="#FF3B30"/><text x="310" y="880" class="lbl">RECHARGER DES CRÉDITS</text><rect x="298" y="900" width="726" height="150" rx="18" fill="url(#cardG)" stroke="#26262C" filter="url(#shadow)"/><rect x="298" y="900" width="726" height="60" rx="18" fill="url(#glassG)" pointer-events="none"/><rect x="298" y="900" width="726" height="150" rx="18" fill="url(#redSoft)"/><text x="326" y="948" class="d2" font-size="28">720 crédits</text><text x="326" y="976" class="sub">≈ 6 min animées en 480p · les crédits achetés n’expirent pas.</text><text x="326" y="1020" class="mut">Contrairement au quota mensuel du plan, qui expire en fin de cycle.</text><text x="996" y="948" class="h1" text-anchor="end">5 000 FCFA</text><g><rect x="796" y="968" width="200" height="48" rx="12" fill="url(#red)" stroke="none" filter="url(#glowRed)"/><rect x="796" y="968" width="200" height="24.0" rx="12" fill="url(#glassG)"/><text x="896.0" y="996.5" class="btnT" fill="#FFFFFF" text-anchor="middle">Payer 5 000 FCFA</text></g><rect x="1050" y="900" width="350" height="150" rx="18" fill="url(#cardG)" stroke="#26262C" filter="url(#shadow)"/><rect x="1050" y="900" width="350" height="60" rx="18" fill="url(#glassG)" pointer-events="none"/><text x="1078" y="938" class="h2">Moyens de paiement</text><rect x="1078" y="956" width="294" height="38" rx="10" fill="#0F0F13" stroke="#1C1C21"/><g transform="translate(1088,963) scale(.85)"><g fill="none" stroke="#FF3B30" stroke-width="1.8" stroke-linecap="round" stroke-linejoin="round"><rect x="2.5" y="5" width="19" height="14" rx="3"/><path d="M2.5 9.6h19"/></g></g><text x="1116" y="980" class="h3">Mobile money</text><text x="1356" y="980" class="mut" text-anchor="end">MTN, Moov, Celtiis</text><rect x="1078" y="1002" width="294" height="38" rx="10" fill="#0F0F13" stroke="#1C1C21"/><g transform="translate(1088,1009) scale(.85)"><g fill="none" stroke="#FF3B30" stroke-width="1.8" stroke-linecap="round" stroke-linejoin="round"><rect x="2.5" y="5" width="19" height="14" rx="3"/><path d="M2.5 9.6h19"/></g></g><text x="1116" y="1026" class="h3">Carte bancaire</text><text x="1356" y="1026" class="mut" text-anchor="end">Visa, Mastercard</text><rect x="298" y="1085" width="3" height="14" rx="1.5" fill="#FF3B30"/><text x="310" y="1096" class="lbl">HISTORIQUE DES PAIEMENTS</text><rect x="298" y="1116" width="1102" height="250" rx="18" fill="url(#cardG)" stroke="#26262C" filter="url(#shadow)"/><rect x="298" y="1116" width="1102" height="60" rx="18" fill="url(#glassG)" pointer-events="none"/><text x="326" y="1152" class="lbl">OBJET</text><text x="798" y="1152" class="lbl">DATE</text><text x="1058" y="1152" class="lbl">MONTANT</text><text x="1258" y="1152" class="lbl">STATUT</text><line x1="322" y1="1164" x2="1376" y2="1164" stroke="#1C1C21"/><text x="326" y="1196" class="h3">Abonnement — Pro</text><text x="326" y="1214" class="mut">5 400 crédits accordés</text><text x="798" y="1202" class="sub">12 août 2026</text><text x="1058" y="1202" class="h3">30 000 FCFA</text><rect x="1258" y="1187" width="64" height="22" rx="11" fill="#32D74B" fill-opacity=".14" stroke="#32D74B" stroke-opacity=".35"/><circle cx="1269" cy="1198" r="3" fill="#32D74B"/><text x="1278" y="1202" font-size="11" font-weight="700" fill="#32D74B">réussi</text><line x1="322" y1="1230" x2="1376" y2="1230" stroke="#1C1C21"/><text x="326" y="1252" class="h3">Recharge de crédits</text><text x="326" y="1270" class="mut">720 crédits accordés</text><text x="798" y="1258" class="sub">28 juillet 2026</text><text x="1058" y="1258" class="h3">5 000 FCFA</text><rect x="1258" y="1243" width="64" height="22" rx="11" fill="#32D74B" fill-opacity=".14" stroke="#32D74B" stroke-opacity=".35"/><circle cx="1269" cy="1254" r="3" fill="#32D74B"/><text x="1278" y="1258" font-size="11" font-weight="700" fill="#32D74B">réussi</text><line x1="322" y1="1286" x2="1376" y2="1286" stroke="#1C1C21"/><text x="326" y="1308" class="h3">Abonnement — Starter</text><text x="326" y="1326" class="mut">relancé avec succès le même jour</text><text x="798" y="1314" class="sub">12 juillet 2026</text><text x="1058" y="1314" class="h3">15 000 FCFA</text><rect x="1258" y="1299" width="64" height="22" rx="11" fill="#FF3B30" fill-opacity=".14" stroke="#FF3B30" stroke-opacity=".35"/><circle cx="1269" cy="1310" r="3" fill="#FF3B30"/><text x="1278" y="1314" font-size="11" font-weight="700" fill="#FF3B30">échoué</text><rect x="298" y="1405" width="3" height="14" rx="1.5" fill="#FF3B30"/><text x="310" y="1416" class="lbl">VARIANTE · ABONNEMENT SUSPENDU (3 TENTATIVES ÉCHOUÉES)</text><rect x="298" y="1436" width="1102" height="100" rx="18" fill="#FF3B30" fill-opacity=".07" stroke="#FF3B30" stroke-opacity=".3"/><text x="326" y="1474" class="h2">Plan Pro</text><rect x="414" y="1456" width="77" height="22" rx="11" fill="#FF3B30" fill-opacity=".14" stroke="#FF3B30" stroke-opacity=".35"/><circle cx="425" cy="1467" r="3" fill="#FF3B30"/><text x="434" y="1471" font-size="11" font-weight="700" fill="#FF3B30">suspendu</text><text x="326" y="1500" class="sub">Le paiement a échoué 3 fois : le renouvellement est arrêté. Tes crédits déjà achetés restent intacts —</text><text x="326" y="1520" class="sub">un nouveau paiement relance tout immédiatement.</text><g><rect x="1158" y="1462" width="220" height="46" rx="12" fill="url(#red)" stroke="none" filter="url(#glowRed)"/><rect x="1158" y="1462" width="220" height="23.0" rx="12" fill="url(#glassG)"/><text x="1268.0" y="1489.5" class="btnT" fill="#FFFFFF" text-anchor="middle">Réactiver — payer maintenant</text></g></svg>