<svg xmlns="http://www.w3.org/2000/svg" width="1440" height="1080" viewBox="0 0 1440 1080">
  <defs>
    <linearGradient id="red" x1="0" y1="0" x2="0" y2="1">
      <stop offset="0" stop-color="#FF6B5E"/><stop offset="1" stop-color="#D0021B"/>
    </linearGradient>
    <linearGradient id="redSoft" x1="0" y1="0" x2="1" y2="1">
      <stop offset="0" stop-color="#FF3B30" stop-opacity=".22"/>
      <stop offset="1" stop-color="#FF3B30" stop-opacity="0"/>
    </linearGradient>
    <linearGradient id="cardG" x1="0" y1="0" x2="0" y2="1">
      <stop offset="0" stop-color="#1A1A20"/><stop offset="1" stop-color="#121216"/>
    </linearGradient>
    <linearGradient id="glassG" x1="0" y1="0" x2="0" y2="1">
      <stop offset="0" stop-color="#FFFFFF" stop-opacity=".07"/>
      <stop offset="1" stop-color="#FFFFFF" stop-opacity="0"/>
    </linearGradient>
    <linearGradient id="barG" x1="0" y1="0" x2="1" y2="0">
      <stop offset="0" stop-color="#B3271F"/><stop offset=".6" stop-color="#FF3B30"/>
      <stop offset="1" stop-color="#FF8A7E"/>
    </linearGradient>
    <linearGradient id="avA" x1="0" y1="0" x2="1" y2="1">
      <stop offset="0" stop-color="#FF8A5B"/><stop offset="1" stop-color="#D0021B"/></linearGradient>
    <linearGradient id="avB" x1="0" y1="0" x2="1" y2="1">
      <stop offset="0" stop-color="#5AC8FA"/><stop offset="1" stop-color="#0A84FF"/></linearGradient>
    <linearGradient id="avC" x1="0" y1="0" x2="1" y2="1">
      <stop offset="0" stop-color="#BF5AF2"/><stop offset="1" stop-color="#6E2CA8"/></linearGradient>
    <linearGradient id="avD" x1="0" y1="0" x2="1" y2="1">
      <stop offset="0" stop-color="#32D74B"/><stop offset="1" stop-color="#0F7A32"/></linearGradient>

    <radialGradient id="halo" cx=".5" cy=".5" r=".5">
      <stop offset="0" stop-color="#FF3B30" stop-opacity=".30"/>
      <stop offset="1" stop-color="#FF3B30" stop-opacity="0"/>
    </radialGradient>

    <filter id="shadow" x="-30%" y="-30%" width="160%" height="180%">
      <feDropShadow dx="0" dy="10" stdDeviation="18" flood-color="#000" flood-opacity=".55"/>
    </filter>
    <filter id="shadowSm" x="-30%" y="-30%" width="160%" height="180%">
      <feDropShadow dx="0" dy="3" stdDeviation="6" flood-color="#000" flood-opacity=".45"/>
    </filter>
    <filter id="glowRed" x="-60%" y="-60%" width="220%" height="240%">
      <feDropShadow dx="0" dy="4" stdDeviation="10" flood-color="#FF3B30" flood-opacity=".45"/>
    </filter>
    <filter id="blur18"><feGaussianBlur stdDeviation="18"/></filter>
    <filter id="blur6"><feGaussianBlur stdDeviation="6"/></filter>

    <clipPath id="clip16x9"><rect width="100" height="56" rx="8"/></clipPath>
  </defs>

  <style>
    text { font-family:'Plus Jakarta Sans','Inter',-apple-system,'Segoe UI',Roboto,sans-serif; }
    .d1  { font-size:44px; font-weight:800; fill:#FFFFFF; letter-spacing:-1.2px }
    .d2  { font-size:32px; font-weight:800; fill:#FFFFFF; letter-spacing:-.8px }
    .h1  { font-size:23px; font-weight:800; fill:#FFFFFF; letter-spacing:-.4px }
    .h2  { font-size:16px; font-weight:700; fill:#FFFFFF; letter-spacing:-.2px }
    .h3  { font-size:14px; font-weight:700; fill:#FFFFFF }
    .num { font-size:42px; font-weight:800; fill:#FFFFFF; letter-spacing:-1.5px }
    .body{ font-size:13px; fill:#C9C9D1 }
    .sub { font-size:12.5px; fill:#8B8B95 }
    .mut { font-size:11.5px; fill:#5C5C66 }
    .lbl { font-size:10px; font-weight:700; fill:#8B8B95; letter-spacing:.11em }
    .nav { font-size:13.5px; font-weight:600; fill:#8B8B95 }
    .navOn{font-size:13.5px; font-weight:700; fill:#FFFFFF }
    .btnT{ font-size:13.5px; font-weight:700; fill:#FFFFFF }
    .link{ font-size:12.5px; font-weight:700; fill:#FF3B30 }
    .mono{ font-family:'JetBrains Mono','SF Mono',ui-monospace,Menlo,monospace; font-size:11.5px; fill:#8B8B95 }
    .note{ font-size:11px; fill:#5C5C66; font-style:italic }
  </style>
<rect width="1440" height="1080" fill="#08080A"/><rect width="1440" height="68" fill="#0B0B0E"/><line x1="0" y1="68" x2="1440" y2="68" stroke="#1C1C21"/><g transform="translate(36,17) scale(1.0)"><rect width="34" height="34" rx="10" fill="url(#red)" filter="url(#glowRed)"/><rect width="34" height="34" rx="10" fill="url(#glassG)"/><path d="M13.5 10 L24 17 L13.5 24 Z" fill="#fff"/><text x="44" y="24" font-size="18" font-weight="800" fill="#fff" letter-spacing="-.4">Gen<tspan fill="#FF3B30">Tube</tspan></text></g><rect x="300" y="19" width="300" height="31" rx="10" fill="#101014" stroke="#232329"/><g transform="translate(309,27)"><g fill="none" stroke="#5C5C66" stroke-width="1.6" stroke-linecap="round" stroke-linejoin="round"><circle cx="11" cy="11" r="6.5"/><path d="M16 16l4.5 4.5"/></g></g><text x="338" y="39" font-size="12.5" fill="#5C5C66">Rechercher un projet, une vidéo…</text><rect x="558" y="26" width="30" height="17" rx="5" fill="#1A1A20" stroke="#2A2A31"/><text x="573" y="38" font-size="10" font-weight="700" fill="#5C5C66" text-anchor="middle">⌘K</text><rect x="1200" y="19" width="158" height="31" rx="15.5" fill="#1A1A20" stroke="#2E2E36"/><g transform="translate(1210,27)"><g fill="none" stroke="#FF3B30" stroke-width="1.6" stroke-linecap="round" stroke-linejoin="round"><path d="M13 2.5L5 13.5h6l-1 8 8-11h-6z"/></g></g><text x="1238" y="39" font-size="12.5" font-weight="800" fill="#fff">5 400</text><text x="1348" y="38.5" font-size="10" font-weight="800" fill="#FF3B30" text-anchor="end">RECHARGER</text><circle cx="1396" cy="34" r="17" fill="url(#avA)"/><circle cx="1396" cy="34" r="17" fill="none" stroke="#FFFFFF" stroke-opacity=".18"/><text x="1396" y="39.8" font-size="13" font-weight="800" fill="#fff" text-anchor="middle">AM</text><circle cx="1407" cy="45" r="5" fill="#32D74B" stroke="#0B0B0E" stroke-width="2"/><rect x="0" y="68" width="258" height="1012" fill="#0A0A0D"/><line x1="258" y1="68" x2="258" y2="1080" stroke="#1C1C21"/><rect x="14" y="86" width="230" height="52" rx="12" fill="#131316" stroke="#26262C"/><circle cx="40" cy="112" r="15" fill="url(#avC)"/><circle cx="40" cy="112" r="15" fill="none" stroke="#FFFFFF" stroke-opacity=".18"/><text x="40" y="117.1" font-size="12" font-weight="800" fill="#fff" text-anchor="middle">SC</text><text x="64" y="108" font-size="13" font-weight="700" fill="#fff">Studio Cotonou</text><text x="64" y="124" font-size="11" fill="#8B8B95">Plan Pro</text><g transform="translate(210,100)"><g fill="none" stroke="#5C5C66" stroke-width="1.6" stroke-linecap="round" stroke-linejoin="round"><path d="M8.5 10l3.5 3.5L15.5 10"/></g></g><g transform="translate(32,168)"><g fill="none" stroke="#8B8B95" stroke-width="1.7" stroke-linecap="round" stroke-linejoin="round"><circle cx="9" cy="7.5" r="3.2"/><path d="M3 18.5c0-3.6 2.7-6.2 6-6.2s6 2.6 6 6.2"/><circle cx="16.6" cy="8.4" r="2.5"/><path d="M16 12.8c2.8.4 4.7 2.6 4.7 5.7"/></g></g><text x="66" y="185" class="nav">Équipe</text><rect x="14" y="206" width="230" height="40" rx="11" fill="#1A1A1F" stroke="#2C2C34"/><rect x="14" y="215" width="3" height="22" rx="1.5" fill="#FF3B30"/><g transform="translate(32,214)"><g fill="none" stroke="#FF3B30" stroke-width="1.7" stroke-linecap="round" stroke-linejoin="round"><rect x="2.5" y="4.5" width="19" height="15" rx="3.5"/><path d="M10 9.2l6 2.8-6 2.8z"/></g></g><text x="66" y="231" class="navOn">Projets</text><g transform="translate(32,260)"><g fill="none" stroke="#8B8B95" stroke-width="1.7" stroke-linecap="round" stroke-linejoin="round"><circle cx="12" cy="12" r="3.2"/><path d="M12 2.8v2.6M12 18.6v2.6M21.2 12h-2.6M5.4 12H2.8M18.5 5.5l-1.8 1.8M7.3 16.7l-1.8 1.8M18.5 18.5l-1.8-1.8M7.3 7.3L5.5 5.5"/></g></g><text x="66" y="277" class="nav">Général</text><g transform="translate(32,306)"><g fill="none" stroke="#8B8B95" stroke-width="1.7" stroke-linecap="round" stroke-linejoin="round"><rect x="2.5" y="5" width="19" height="14" rx="3"/><path d="M2.5 9.6h19"/></g></g><text x="66" y="323" class="nav">Facturation</text><g transform="translate(32,352)"><g fill="none" stroke="#8B8B95" stroke-width="1.7" stroke-linecap="round" stroke-linejoin="round"><path d="M2.5 12h4l3-7 4.5 14 3-7h4.5"/></g></g><text x="66" y="369" class="nav">Activité</text><g transform="translate(32,398)"><g fill="none" stroke="#8B8B95" stroke-width="1.7" stroke-linecap="round" stroke-linejoin="round"><path d="M12 3l8 3v5.6c0 5-3.2 8.4-8 10-4.8-1.6-8-5-8-10V6z"/></g></g><text x="66" y="415" class="nav">Sécurité</text><rect x="14" y="948" width="230" height="106" rx="14" fill="#131316" stroke="#26262C"/><rect x="14" y="948" width="230" height="106" rx="14" fill="url(#redSoft)"/><text x="32" y="974" class="lbl">CRÉDITS RESTANTS</text><text x="32" y="1004" font-size="26" font-weight="800" fill="#fff">5 400</text><text x="122" y="1004" font-size="11" fill="#8B8B95">≈ 45 min animées</text><rect x="32" y="1016" width="194" height="8" rx="4.0" fill="#232329"/><rect x="32" y="1016" width="124.2" height="8" rx="4.0" fill="url(#barG)"/><text x="32" y="1040" font-size="11" fill="#8B8B95">3 450 / 5 400 ce cycle</text><g transform="translate(296,88)"><g fill="none" stroke="#8B8B95" stroke-width="1.8" stroke-linecap="round" stroke-linejoin="round"><path d="M14.5 5.5L8 12l6.5 6.5"/></g></g><text x="322" y="104" class="sub">Histoires du Bénin</text><text x="298" y="132" class="h1">Les Amazones du Dahomey</text><rect x="646" y="118" width="84" height="22" rx="11" fill="#8B8B95" fill-opacity=".14" stroke="#8B8B95" stroke-opacity=".35"/><circle cx="657" cy="129" r="3" fill="#8B8B95"/><text x="666" y="133" font-size="11" font-weight="700" fill="#8B8B95">brouillon</text><text x="298" y="156" class="sub">480p · 16:9 · 5 scènes</text><rect x="1180" y="116" width="220" height="42" rx="10" fill="#0C0C0F" stroke="#2A2A31"/><text x="1236.0" y="141.5" font-size="12.5" font-weight="600" fill="#8B8B95" text-anchor="middle">Storyboard</text><rect x="1292.0" y="120" width="104.0" height="34" rx="7" fill="#212127" stroke="#3A3A44" filter="url(#shadowSm)"/><text x="1344.0" y="141.5" font-size="12.5" font-weight="700" fill="#FFFFFF" text-anchor="middle">Studio</text><rect x="298" y="190" width="726" height="470" rx="18" fill="url(#cardG)" stroke="#26262C" filter="url(#shadow)"/><rect x="298" y="190" width="726" height="60" rx="18" fill="url(#glassG)" pointer-events="none"/><defs><clipPath id="sa1_314_206"><rect x="314" y="206" width="694" height="390" rx="12"/></clipPath></defs><g clip-path="url(#sa1_314_206)"><rect x="314" y="206" width="694" height="390" fill="#7A5B33"/><rect x="314" y="206" width="694" height="195.0" fill="#C29A5E"/><ellipse cx="661.0" cy="518.0" rx="416.4" ry="117.0" fill="#E0C08A" fill-opacity=".45"/><rect x="438.9" y="420.5" width="31.2" height="144.3" rx="13.9" fill="#3A2513"/><circle cx="454.2" cy="420.5" r="18.0" fill="#3A2513"/><rect x="536.1" y="401.0" width="31.2" height="163.8" rx="13.9" fill="#3A2513"/><circle cx="551.3" cy="401.0" r="18.0" fill="#3A2513"/><rect x="633.2" y="381.5" width="31.2" height="183.3" rx="13.9" fill="#3A2513"/><circle cx="648.5" cy="381.5" r="18.0" fill="#3A2513"/><rect x="730.4" y="420.5" width="31.2" height="144.3" rx="13.9" fill="#3A2513"/><circle cx="745.7" cy="420.5" r="18.0" fill="#3A2513"/><rect x="827.6" y="401.0" width="31.2" height="163.8" rx="13.9" fill="#3A2513"/><circle cx="842.8" cy="401.0" r="18.0" fill="#3A2513"/><rect x="314" y="206" width="694" height="390" fill="url(#glassG)"/></g><rect x="314" y="206" width="694" height="390" rx="12" fill="none" stroke="#FFFFFF" stroke-opacity=".10"/><rect x="478" y="520" width="366" height="42" rx="10" fill="#000" fill-opacity=".62"/><text x="661" y="548" font-size="19" font-weight="800" fill="#FFF" text-anchor="middle">On les appelle <tspan fill="#FF3B30">les Amazones</tspan></text><g transform="translate(328,616)"><g fill="none" stroke="#FFFFFF" stroke-width="1.9" stroke-linecap="round" stroke-linejoin="round"><rect x="2.5" y="4.5" width="19" height="15" rx="3.5"/><path d="M10 9.2l6 2.8-6 2.8z"/></g></g><text x="362" y="634" class="mono" fill="#C9C9D1">0:07,2 / 0:30,0</text><rect x="478" y="626" width="470" height="5" rx="2.5" fill="#FFFFFF" fill-opacity=".2"/><rect x="478" y="626" width="113" height="5" rx="2.5" fill="#FF3B30"/><circle cx="591" cy="628.5" r="7" fill="#fff"/><g transform="translate(970,616) scale(.9)"><g fill="none" stroke="#8B8B95" stroke-width="1.8" stroke-linecap="round" stroke-linejoin="round"><path d="M2.5 12S6 5.8 12 5.8 21.5 12 21.5 12 18 18.2 12 18.2 2.5 12 2.5 12z"/><circle cx="12" cy="12" r="3"/></g></g><rect x="1050" y="190" width="350" height="470" rx="18" fill="url(#cardG)" stroke="#26262C" filter="url(#shadow)"/><rect x="1050" y="190" width="350" height="60" rx="18" fill="url(#glassG)" pointer-events="none"/><text x="1078" y="228" class="h2">Scène #2</text><rect x="1160" y="210" width="71" height="22" rx="11" fill="#32D74B" fill-opacity=".14" stroke="#32D74B" stroke-opacity=".35"/><circle cx="1171" cy="221" r="3" fill="#32D74B"/><text x="1180" y="225" font-size="11" font-weight="700" fill="#32D74B">mesurée</text><text x="1078" y="252" class="sub">Vidéo · 5,10 s · 6,3 s → 11,4 s</text><defs><clipPath id="sa1_1078_268"><rect x="1078" y="268" width="294" height="100" rx="10"/></clipPath></defs><g clip-path="url(#sa1_1078_268)"><rect x="1078" y="268" width="294" height="100" fill="#7A5B33"/><rect x="1078" y="268" width="294" height="50.0" fill="#C29A5E"/><ellipse cx="1225.0" cy="348.0" rx="176.4" ry="30.0" fill="#E0C08A" fill-opacity=".45"/><rect x="1130.9" y="323.0" width="13.2" height="37.0" rx="5.9" fill="#3A2513"/><circle cx="1137.4" cy="323.0" r="7.6" fill="#3A2513"/><rect x="1172.1" y="318.0" width="13.2" height="42.0" rx="5.9" fill="#3A2513"/><circle cx="1178.5" cy="318.0" r="7.6" fill="#3A2513"/><rect x="1213.2" y="313.0" width="13.2" height="47.0" rx="5.9" fill="#3A2513"/><circle cx="1219.7" cy="313.0" r="7.6" fill="#3A2513"/><rect x="1254.4" y="323.0" width="13.2" height="37.0" rx="5.9" fill="#3A2513"/><circle cx="1260.9" cy="323.0" r="7.6" fill="#3A2513"/><rect x="1295.6" y="318.0" width="13.2" height="42.0" rx="5.9" fill="#3A2513"/><circle cx="1302.0" cy="318.0" r="7.6" fill="#3A2513"/><rect x="1078" y="268" width="294" height="100" fill="url(#glassG)"/></g><rect x="1078" y="268" width="294" height="100" rx="10" fill="none" stroke="#FFFFFF" stroke-opacity=".10"/><text x="1078" y="392" class="lbl">TRANSITION ENTRANTE</text><rect x="1078" y="400" width="294" height="34" rx="9" fill="#0C0C0F" stroke="#2A2A31"/><text x="1092" y="422" font-size="12.5" fill="#fff">Fondu</text><g transform="translate(1344,405) scale(.8)"><g fill="none" stroke="#5C5C66" stroke-width="1.8" stroke-linecap="round" stroke-linejoin="round"><path d="M8.5 10l3.5 3.5L15.5 10"/></g></g><text x="1078" y="448" class="lbl">ZOOM</text><rect x="1078" y="456" width="294" height="34" rx="9" fill="#0C0C0F" stroke="#2A2A31"/><text x="1092" y="478" font-size="12.5" fill="#fff">Entrée lent</text><g transform="translate(1344,461) scale(.8)"><g fill="none" stroke="#5C5C66" stroke-width="1.8" stroke-linecap="round" stroke-linejoin="round"><path d="M8.5 10l3.5 3.5L15.5 10"/></g></g><text x="1078" y="504" class="lbl">SOUS-TITRES</text><rect x="1078" y="512" width="294" height="34" rx="9" fill="#0C0C0F" stroke="#2A2A31"/><text x="1092" y="534" font-size="12.5" fill="#fff">Karaoké</text><g transform="translate(1344,517) scale(.8)"><g fill="none" stroke="#5C5C66" stroke-width="1.8" stroke-linecap="round" stroke-linejoin="round"><path d="M8.5 10l3.5 3.5L15.5 10"/></g></g><text x="1078" y="568" class="lbl">SONS DE LA SCÈNE</text><rect x="1078" y="578" width="294" height="24" rx="7" fill="#0F0F13" stroke="#1C1C21"/><g transform="translate(1084,580) scale(.72)"><g fill="none" stroke="#8B8B95" stroke-width="2" stroke-linecap="round" stroke-linejoin="round"><rect x="2.5" y="4.5" width="19" height="15" rx="3.5"/><path d="M10 9.2l6 2.8-6 2.8z"/></g></g><text x="1108" y="594" font-size="11" fill="#C9C9D1">pop · sfx</text><text x="1342" y="594" font-size="10.5" fill="#5C5C66" text-anchor="end">2,8 s</text><rect x="1078" y="608" width="294" height="24" rx="7" fill="#0F0F13" stroke="#1C1C21"/><g transform="translate(1084,610) scale(.72)"><g fill="none" stroke="#8B8B95" stroke-width="2" stroke-linecap="round" stroke-linejoin="round"><rect x="2.5" y="4.5" width="19" height="15" rx="3.5"/><path d="M10 9.2l6 2.8-6 2.8z"/></g></g><text x="1108" y="624" font-size="11" fill="#C9C9D1">ambiance marché</text><text x="1342" y="624" font-size="10.5" fill="#5C5C66" text-anchor="end">33 s</text><g><rect x="1078" y="634" width="294" height="40" rx="20" fill="#212127" stroke="#26262C"/><text x="1225.0" y="658.5" class="btnT" fill="#FFFFFF" text-anchor="middle">⟳  Régénérer cette scène</text></g><rect x="298" y="686" width="1102" height="356" rx="18" fill="url(#cardG)" stroke="#26262C" filter="url(#shadow)"/><rect x="298" y="686" width="1102" height="60" rx="18" fill="url(#glassG)" pointer-events="none"/><text x="326" y="724" class="h2">Timeline</text><text x="418" y="724" class="sub">durée verrouillée sur l’audio</text><rect x="1118" y="706" width="160" height="32" rx="10" fill="#0C0C0F" stroke="#2A2A31"/><text x="1146.0" y="726.5" font-size="12.5" font-weight="600" fill="#8B8B95" text-anchor="middle">−</text><rect x="1174.0" y="710" width="48.0" height="24" rx="7" fill="#212127" stroke="#3A3A44" filter="url(#shadowSm)"/><text x="1198.0" y="726.5" font-size="12.5" font-weight="700" fill="#FFFFFF" text-anchor="middle">100 %</text><text x="1250.0" y="726.5" font-size="12.5" font-weight="600" fill="#8B8B95" text-anchor="middle">+</text><g><rect x="1290" y="706" width="86" height="32" rx="16" fill="none" stroke="#3A3A42"/><text x="1333.0" y="726.5" class="btnT" fill="#C9C9D1" text-anchor="middle">Ajuster</text></g><line x1="418" y1="762" x2="1358" y2="762" stroke="#26262C"/><line x1="418.0" y1="756" x2="418.0" y2="766" stroke="#5C5C66"/><text x="418.0" y="750" class="mut" text-anchor="middle">0 s</text><line x1="574.7" y1="756" x2="574.7" y2="766" stroke="#5C5C66"/><text x="574.7" y="750" class="mut" text-anchor="middle">5 s</text><line x1="731.3" y1="756" x2="731.3" y2="766" stroke="#5C5C66"/><text x="731.3" y="750" class="mut" text-anchor="middle">10 s</text><line x1="888.0" y1="756" x2="888.0" y2="766" stroke="#5C5C66"/><text x="888.0" y="750" class="mut" text-anchor="middle">15 s</text><line x1="1044.7" y1="756" x2="1044.7" y2="766" stroke="#5C5C66"/><text x="1044.7" y="750" class="mut" text-anchor="middle">20 s</text><line x1="1201.3" y1="756" x2="1201.3" y2="766" stroke="#5C5C66"/><text x="1201.3" y="750" class="mut" text-anchor="middle">25 s</text><line x1="1358.0" y1="756" x2="1358.0" y2="766" stroke="#5C5C66"/><text x="1358.0" y="750" class="mut" text-anchor="middle">30 s</text><text x="326" y="813.0" class="sub">Visuels</text><rect x="418" y="786" width="940" height="46" rx="7" fill="#0C0C0F" stroke="#1C1C21"/><text x="326" y="871.0" class="sub">Voix off</text><rect x="418" y="850" width="940" height="34" rx="7" fill="#0C0C0F" stroke="#1C1C21"/><text x="326" y="917.0" class="sub">Musique</text><rect x="418" y="900" width="940" height="26" rx="7" fill="#0C0C0F" stroke="#1C1C21"/><text x="326" y="959.0" class="sub">SFX</text><rect x="418" y="942" width="940" height="26" rx="7" fill="#0C0C0F" stroke="#1C1C21"/><defs><clipPath id="sa0_420_788"><rect x="420.0" y="788" width="161.44" height="42" rx="6"/></clipPath></defs><g clip-path="url(#sa0_420_788)"><rect x="420.0" y="788" width="161.44" height="42" fill="#3A1F14"/><rect x="420.0" y="788" width="161.44" height="27.7" fill="#C96A2E"/><rect x="420.0" y="788" width="161.44" height="16.8" fill="#F2A25C"/><circle cx="533.0" cy="802.3" r="5.5" fill="#FFE0A8"/><rect x="420.0" y="814.0" width="161.44" height="16.0" fill="#4A2717"/><rect x="429.7" y="804.0" width="29.1" height="10.1" fill="#2E170D"/><rect x="463.6" y="800.6" width="21.0" height="13.4" fill="#2E170D"/><rect x="491.0" y="805.6" width="35.5" height="8.4" fill="#2E170D"/><rect x="533.0" y="802.3" width="25.8" height="11.8" fill="#2E170D"/><rect x="562.1" y="804.8" width="19.4" height="9.2" fill="#2E170D"/><rect x="420.0" y="809.0" width="161.44" height="5.9" fill="#FFD9A0" fill-opacity=".22"/><rect x="420.0" y="788" width="161.44" height="42" fill="url(#glassG)"/></g><rect x="420.0" y="788" width="161.44" height="42" rx="6" fill="none" stroke="#FFFFFF" stroke-opacity=".10"/><text x="426.0" y="804" font-size="10" font-weight="700" fill="#fff">#1</text><g transform="translate(574.4,800) scale(.62)"><g fill="none" stroke="#FFFFFF" stroke-width="2.2" stroke-linecap="round" stroke-linejoin="round"><circle cx="9" cy="6" r="1.3"/><circle cx="15" cy="6" r="1.3"/><circle cx="9" cy="12" r="1.3"/><circle cx="15" cy="12" r="1.3"/><circle cx="9" cy="18" r="1.3"/><circle cx="15" cy="18" r="1.3"/></g></g><defs><clipPath id="sa1_585_788"><rect x="585.44" y="788" width="155.8" height="42" rx="6"/></clipPath></defs><g clip-path="url(#sa1_585_788)"><rect x="585.44" y="788" width="155.8" height="42" fill="#7A5B33"/><rect x="585.44" y="788" width="155.8" height="21.0" fill="#C29A5E"/><ellipse cx="663.3" cy="821.6" rx="93.5" ry="12.6" fill="#E0C08A" fill-opacity=".45"/><rect x="613.5" y="811.1" width="7.0" height="15.5" rx="3.1" fill="#3A2513"/><circle cx="616.9" cy="811.1" r="4.1" fill="#3A2513"/><rect x="635.3" y="809.0" width="7.0" height="17.6" rx="3.1" fill="#3A2513"/><circle cx="638.7" cy="809.0" r="4.1" fill="#3A2513"/><rect x="657.1" y="806.9" width="7.0" height="19.7" rx="3.1" fill="#3A2513"/><circle cx="660.5" cy="806.9" r="4.1" fill="#3A2513"/><rect x="678.9" y="811.1" width="7.0" height="15.5" rx="3.1" fill="#3A2513"/><circle cx="682.3" cy="811.1" r="4.1" fill="#3A2513"/><rect x="700.7" y="809.0" width="7.0" height="17.6" rx="3.1" fill="#3A2513"/><circle cx="704.2" cy="809.0" r="4.1" fill="#3A2513"/><rect x="585.44" y="788" width="155.8" height="42" fill="url(#glassG)"/></g><rect x="585.44" y="788" width="155.8" height="42" rx="6" fill="none" stroke="#FFFFFF" stroke-opacity=".10"/><rect x="585.44" y="788" width="155.8" height="42" rx="6" fill="none" stroke="#FF3B30" stroke-width="2"/><text x="591.44" y="804" font-size="10" font-weight="700" fill="#fff">#2</text><g transform="translate(734.2,800) scale(.62)"><g fill="none" stroke="#FFFFFF" stroke-width="2.2" stroke-linecap="round" stroke-linejoin="round"><circle cx="9" cy="6" r="1.3"/><circle cx="15" cy="6" r="1.3"/><circle cx="9" cy="12" r="1.3"/><circle cx="15" cy="12" r="1.3"/><circle cx="9" cy="18" r="1.3"/><circle cx="15" cy="18" r="1.3"/></g></g><defs><clipPath id="sa2_745_788"><rect x="745.24" y="788" width="146.4" height="42" rx="6"/></clipPath></defs><g clip-path="url(#sa2_745_788)"><rect x="745.24" y="788" width="146.4" height="42" fill="#2A1A22"/><ellipse cx="818.4" cy="814.0" rx="43.9" ry="21.8" fill="#6B4433"/><ellipse cx="812.6" cy="811.1" rx="29.3" ry="15.1" fill="#8A5B42"/><ellipse cx="806.7" cy="809.8" rx="6.6" ry="2.1" fill="#231318"/><ellipse cx="830.2" cy="809.0" rx="6.6" ry="2.1" fill="#231318"/><rect x="745.24" y="788" width="46.8" height="42" fill="#150C10" fill-opacity=".6"/><rect x="745.24" y="788" width="146.4" height="42" fill="url(#glassG)"/></g><rect x="745.24" y="788" width="146.4" height="42" rx="6" fill="none" stroke="#FFFFFF" stroke-opacity=".10"/><text x="751.24" y="804" font-size="10" font-weight="700" fill="#fff">#3</text><g transform="translate(884.6,800) scale(.62)"><g fill="none" stroke="#FFFFFF" stroke-width="2.2" stroke-linecap="round" stroke-linejoin="round"><circle cx="9" cy="6" r="1.3"/><circle cx="15" cy="6" r="1.3"/><circle cx="9" cy="12" r="1.3"/><circle cx="15" cy="12" r="1.3"/><circle cx="9" cy="18" r="1.3"/><circle cx="15" cy="18" r="1.3"/></g></g><defs><clipPath id="sa3_895_788"><rect x="895.64" y="788" width="265.46666666666664" height="42" rx="6"/></clipPath></defs><g clip-path="url(#sa3_895_788)"><rect x="895.64" y="788" width="265.46666666666664" height="42" fill="#2B1430"/><rect x="895.64" y="788" width="265.46666666666664" height="29.4" fill="#B0407A"/><rect x="895.64" y="788" width="265.46666666666664" height="16.0" fill="#F2764E"/><circle cx="980.6" cy="809.8" r="7.1" fill="#FFD36B"/><rect x="895.64" y="815.7" width="265.46666666666664" height="14.3" fill="#1B0D20"/><rect x="927.5" y="809.0" width="8.0" height="7.6" fill="#1B0D20"/><rect x="1001.8" y="809.0" width="8.0" height="7.6" fill="#1B0D20"/><rect x="1070.8" y="809.0" width="8.0" height="7.6" fill="#1B0D20"/><rect x="1123.9" y="809.0" width="8.0" height="7.6" fill="#1B0D20"/><rect x="895.64" y="788" width="265.46666666666664" height="42" fill="url(#glassG)"/></g><rect x="895.64" y="788" width="265.46666666666664" height="42" rx="6" fill="none" stroke="#FFFFFF" stroke-opacity=".10"/><text x="901.64" y="804" font-size="10" font-weight="700" fill="#fff">#4</text><g transform="translate(1154.1,800) scale(.62)"><g fill="none" stroke="#FFFFFF" stroke-width="2.2" stroke-linecap="round" stroke-linejoin="round"><circle cx="9" cy="6" r="1.3"/><circle cx="15" cy="6" r="1.3"/><circle cx="9" cy="12" r="1.3"/><circle cx="15" cy="12" r="1.3"/><circle cx="9" cy="18" r="1.3"/><circle cx="15" cy="18" r="1.3"/></g></g><defs><clipPath id="sa4_1165_788"><rect x="1165.1066666666666" y="788" width="190.89333333333335" height="42" rx="6"/></clipPath></defs><g clip-path="url(#sa4_1165_788)"><rect x="1165.1066666666666" y="788" width="190.89333333333335" height="42" fill="#1E3A34"/><rect x="1165.1066666666666" y="788" width="190.89333333333335" height="18.9" fill="#3E7A63"/><path d="M1174.7 809.8 l38.2 0 l-5.7 5.0 l-26.7 0 z" fill="#E8A33D"/><rect x="1178.5" y="814.9" width="26.7" height="12.6" fill="#14261F"/><path d="M1218.6 809.8 l38.2 0 l-5.7 5.0 l-26.7 0 z" fill="#D6584A"/><rect x="1222.4" y="814.9" width="26.7" height="12.6" fill="#14261F"/><path d="M1264.4 809.8 l38.2 0 l-5.7 5.0 l-26.7 0 z" fill="#5AA9C9"/><rect x="1268.2" y="814.9" width="26.7" height="12.6" fill="#14261F"/><path d="M1310.2 809.8 l38.2 0 l-5.7 5.0 l-26.7 0 z" fill="#E0C74A"/><rect x="1314.0" y="814.9" width="26.7" height="12.6" fill="#14261F"/><rect x="1165.1066666666666" y="788" width="190.89333333333335" height="42" fill="url(#glassG)"/></g><rect x="1165.1066666666666" y="788" width="190.89333333333335" height="42" rx="6" fill="none" stroke="#FFFFFF" stroke-opacity=".10"/><text x="1171.1066666666666" y="804" font-size="10" font-weight="700" fill="#fff">#5</text><rect x="420.0" y="852" width="161.4" height="30" rx="6" fill="#32D74B" fill-opacity=".16" stroke="#32D74B" stroke-opacity=".4"/><rect x="426.0" y="862.1" width="2.2" height="9.7" rx="1.1" fill="#32D74B"/><rect x="430.0" y="858.7" width="2.2" height="16.6" rx="1.1" fill="#32D74B"/><rect x="434.0" y="859.2" width="2.2" height="15.6" rx="1.1" fill="#32D74B"/><rect x="438.0" y="862.0" width="2.2" height="10.0" rx="1.1" fill="#32D74B"/><rect x="442.0" y="863.0" width="2.2" height="8.0" rx="1.1" fill="#32D74B"/><rect x="446.0" y="865.2" width="2.2" height="3.7" rx="1.1" fill="#32D74B"/><rect x="450.0" y="863.2" width="2.2" height="7.6" rx="1.1" fill="#32D74B"/><rect x="454.0" y="860.7" width="2.2" height="12.6" rx="1.1" fill="#32D74B"/><rect x="458.0" y="861.9" width="2.2" height="10.2" rx="1.1" fill="#32D74B"/><rect x="462.0" y="862.0" width="2.2" height="10.1" rx="1.1" fill="#32D74B"/><rect x="466.0" y="859.4" width="2.2" height="15.1" rx="1.1" fill="#32D74B"/><rect x="470.0" y="862.3" width="2.2" height="9.5" rx="1.1" fill="#32D74B"/><rect x="474.0" y="863.8" width="2.2" height="6.3" rx="1.1" fill="#32D74B"/><rect x="478.0" y="864.8" width="2.2" height="4.4" rx="1.1" fill="#32D74B"/><rect x="482.0" y="862.5" width="2.2" height="9.0" rx="1.1" fill="#32D74B"/><rect x="486.0" y="860.1" width="2.2" height="13.9" rx="1.1" fill="#32D74B"/><rect x="490.0" y="861.2" width="2.2" height="11.7" rx="1.1" fill="#32D74B"/><rect x="494.0" y="858.5" width="2.2" height="17.0" rx="1.1" fill="#32D74B"/><rect x="498.0" y="860.1" width="2.2" height="13.9" rx="1.1" fill="#32D74B"/><rect x="502.0" y="863.9" width="2.2" height="6.2" rx="1.1" fill="#32D74B"/><rect x="506.0" y="865.3" width="2.2" height="3.4" rx="1.1" fill="#32D74B"/><rect x="510.0" y="863.3" width="2.2" height="7.5" rx="1.1" fill="#32D74B"/><rect x="514.0" y="860.2" width="2.2" height="13.6" rx="1.1" fill="#32D74B"/><rect x="518.0" y="860.8" width="2.2" height="12.4" rx="1.1" fill="#32D74B"/><rect x="522.0" y="861.2" width="2.2" height="11.6" rx="1.1" fill="#32D74B"/><rect x="526.0" y="861.0" width="2.2" height="12.1" rx="1.1" fill="#32D74B"/><rect x="530.0" y="863.3" width="2.2" height="7.4" rx="1.1" fill="#32D74B"/><rect x="534.0" y="864.4" width="2.2" height="5.1" rx="1.1" fill="#32D74B"/><rect x="538.0" y="864.4" width="2.2" height="5.2" rx="1.1" fill="#32D74B"/><rect x="542.0" y="862.3" width="2.2" height="9.4" rx="1.1" fill="#32D74B"/><rect x="546.0" y="861.7" width="2.2" height="10.6" rx="1.1" fill="#32D74B"/><rect x="550.0" y="861.2" width="2.2" height="11.7" rx="1.1" fill="#32D74B"/><rect x="554.0" y="861.4" width="2.2" height="11.3" rx="1.1" fill="#32D74B"/><rect x="558.0" y="861.5" width="2.2" height="11.0" rx="1.1" fill="#32D74B"/><rect x="562.0" y="863.5" width="2.2" height="7.0" rx="1.1" fill="#32D74B"/><rect x="566.0" y="865.4" width="2.2" height="3.3" rx="1.1" fill="#32D74B"/><rect x="570.0" y="862.7" width="2.2" height="8.6" rx="1.1" fill="#32D74B"/><rect x="585.44" y="852" width="155.8" height="30" rx="6" fill="#32D74B" fill-opacity=".16" stroke="#32D74B" stroke-opacity=".4"/><rect x="591.4" y="858.8" width="2.2" height="16.3" rx="1.1" fill="#32D74B"/><rect x="595.4" y="860.6" width="2.2" height="12.7" rx="1.1" fill="#32D74B"/><rect x="599.4" y="864.3" width="2.2" height="5.3" rx="1.1" fill="#32D74B"/><rect x="603.4" y="864.9" width="2.2" height="4.1" rx="1.1" fill="#32D74B"/><rect x="607.4" y="861.9" width="2.2" height="10.1" rx="1.1" fill="#32D74B"/><rect x="611.4" y="860.2" width="2.2" height="13.6" rx="1.1" fill="#32D74B"/><rect x="615.4" y="859.5" width="2.2" height="15.1" rx="1.1" fill="#32D74B"/><rect x="619.4" y="860.9" width="2.2" height="12.1" rx="1.1" fill="#32D74B"/><rect x="623.4" y="860.8" width="2.2" height="12.5" rx="1.1" fill="#32D74B"/><rect x="627.4" y="862.6" width="2.2" height="8.8" rx="1.1" fill="#32D74B"/><rect x="631.4" y="864.9" width="2.2" height="4.2" rx="1.1" fill="#32D74B"/><rect x="635.4" y="864.1" width="2.2" height="5.9" rx="1.1" fill="#32D74B"/><rect x="639.4" y="861.9" width="2.2" height="10.2" rx="1.1" fill="#32D74B"/><rect x="643.4" y="860.8" width="2.2" height="12.3" rx="1.1" fill="#32D74B"/><rect x="647.4" y="859.1" width="2.2" height="15.7" rx="1.1" fill="#32D74B"/><rect x="651.4" y="858.7" width="2.2" height="16.5" rx="1.1" fill="#32D74B"/><rect x="655.4" y="860.7" width="2.2" height="12.5" rx="1.1" fill="#32D74B"/><rect x="659.4" y="863.8" width="2.2" height="6.3" rx="1.1" fill="#32D74B"/><rect x="663.4" y="864.7" width="2.2" height="4.6" rx="1.1" fill="#32D74B"/><rect x="667.4" y="863.1" width="2.2" height="7.9" rx="1.1" fill="#32D74B"/><rect x="671.4" y="862.5" width="2.2" height="9.0" rx="1.1" fill="#32D74B"/><rect x="675.4" y="862.0" width="2.2" height="10.0" rx="1.1" fill="#32D74B"/><rect x="679.4" y="860.3" width="2.2" height="13.3" rx="1.1" fill="#32D74B"/><rect x="683.4" y="861.7" width="2.2" height="10.5" rx="1.1" fill="#32D74B"/><rect x="687.4" y="863.1" width="2.2" height="7.8" rx="1.1" fill="#32D74B"/><rect x="691.4" y="864.9" width="2.2" height="4.2" rx="1.1" fill="#32D74B"/><rect x="695.4" y="863.5" width="2.2" height="7.0" rx="1.1" fill="#32D74B"/><rect x="699.4" y="861.5" width="2.2" height="11.1" rx="1.1" fill="#32D74B"/><rect x="703.4" y="861.4" width="2.2" height="11.2" rx="1.1" fill="#32D74B"/><rect x="707.4" y="862.0" width="2.2" height="10.1" rx="1.1" fill="#32D74B"/><rect x="711.4" y="861.2" width="2.2" height="11.5" rx="1.1" fill="#32D74B"/><rect x="715.4" y="862.9" width="2.2" height="8.2" rx="1.1" fill="#32D74B"/><rect x="719.4" y="864.0" width="2.2" height="6.1" rx="1.1" fill="#32D74B"/><rect x="723.4" y="864.3" width="2.2" height="5.5" rx="1.1" fill="#32D74B"/><rect x="727.4" y="862.1" width="2.2" height="9.8" rx="1.1" fill="#32D74B"/><rect x="745.24" y="852" width="146.4" height="30" rx="6" fill="#32D74B" fill-opacity=".16" stroke="#32D74B" stroke-opacity=".4"/><rect x="751.2" y="864.8" width="2.2" height="4.4" rx="1.1" fill="#32D74B"/><rect x="755.2" y="863.9" width="2.2" height="6.3" rx="1.1" fill="#32D74B"/><rect x="759.2" y="862.3" width="2.2" height="9.4" rx="1.1" fill="#32D74B"/><rect x="763.2" y="860.2" width="2.2" height="13.6" rx="1.1" fill="#32D74B"/><rect x="767.2" y="859.5" width="2.2" height="15.0" rx="1.1" fill="#32D74B"/><rect x="771.2" y="862.1" width="2.2" height="9.9" rx="1.1" fill="#32D74B"/><rect x="775.2" y="863.0" width="2.2" height="7.9" rx="1.1" fill="#32D74B"/><rect x="779.2" y="863.1" width="2.2" height="7.8" rx="1.1" fill="#32D74B"/><rect x="783.2" y="865.0" width="2.2" height="3.9" rx="1.1" fill="#32D74B"/><rect x="787.2" y="863.3" width="2.2" height="7.3" rx="1.1" fill="#32D74B"/><rect x="791.2" y="859.5" width="2.2" height="14.9" rx="1.1" fill="#32D74B"/><rect x="795.2" y="860.3" width="2.2" height="13.4" rx="1.1" fill="#32D74B"/><rect x="799.2" y="858.8" width="2.2" height="16.4" rx="1.1" fill="#32D74B"/><rect x="803.2" y="861.1" width="2.2" height="11.9" rx="1.1" fill="#32D74B"/><rect x="807.2" y="862.3" width="2.2" height="9.4" rx="1.1" fill="#32D74B"/><rect x="811.2" y="864.9" width="2.2" height="4.2" rx="1.1" fill="#32D74B"/><rect x="815.2" y="863.7" width="2.2" height="6.7" rx="1.1" fill="#32D74B"/><rect x="819.2" y="860.9" width="2.2" height="12.2" rx="1.1" fill="#32D74B"/><rect x="823.2" y="860.4" width="2.2" height="13.1" rx="1.1" fill="#32D74B"/><rect x="827.2" y="859.1" width="2.2" height="15.9" rx="1.1" fill="#32D74B"/><rect x="831.2" y="859.8" width="2.2" height="14.4" rx="1.1" fill="#32D74B"/><rect x="835.2" y="862.9" width="2.2" height="8.1" rx="1.1" fill="#32D74B"/><rect x="839.2" y="863.3" width="2.2" height="7.3" rx="1.1" fill="#32D74B"/><rect x="843.2" y="864.8" width="2.2" height="4.3" rx="1.1" fill="#32D74B"/><rect x="847.2" y="863.1" width="2.2" height="7.7" rx="1.1" fill="#32D74B"/><rect x="851.2" y="862.6" width="2.2" height="8.8" rx="1.1" fill="#32D74B"/><rect x="855.2" y="858.7" width="2.2" height="16.6" rx="1.1" fill="#32D74B"/><rect x="859.2" y="860.2" width="2.2" height="13.5" rx="1.1" fill="#32D74B"/><rect x="863.2" y="860.3" width="2.2" height="13.4" rx="1.1" fill="#32D74B"/><rect x="867.2" y="861.9" width="2.2" height="10.2" rx="1.1" fill="#32D74B"/><rect x="871.2" y="864.7" width="2.2" height="4.6" rx="1.1" fill="#32D74B"/><rect x="875.2" y="863.2" width="2.2" height="7.6" rx="1.1" fill="#32D74B"/><rect x="879.2" y="862.1" width="2.2" height="9.8" rx="1.1" fill="#32D74B"/><rect x="895.64" y="852" width="265.5" height="30" rx="6" fill="#32D74B" fill-opacity=".16" stroke="#32D74B" stroke-opacity=".4"/><rect x="901.6" y="862.1" width="2.2" height="9.7" rx="1.1" fill="#32D74B"/><rect x="905.6" y="861.8" width="2.2" height="10.4" rx="1.1" fill="#32D74B"/><rect x="909.6" y="860.5" width="2.2" height="13.0" rx="1.1" fill="#32D74B"/><rect x="913.6" y="862.0" width="2.2" height="10.0" rx="1.1" fill="#32D74B"/><rect x="917.6" y="863.3" width="2.2" height="7.3" rx="1.1" fill="#32D74B"/><rect x="921.6" y="864.5" width="2.2" height="5.0" rx="1.1" fill="#32D74B"/><rect x="925.6" y="863.7" width="2.2" height="6.5" rx="1.1" fill="#32D74B"/><rect x="929.6" y="861.4" width="2.2" height="11.3" rx="1.1" fill="#32D74B"/><rect x="933.6" y="859.7" width="2.2" height="14.6" rx="1.1" fill="#32D74B"/><rect x="937.6" y="861.2" width="2.2" height="11.7" rx="1.1" fill="#32D74B"/><rect x="941.6" y="860.2" width="2.2" height="13.6" rx="1.1" fill="#32D74B"/><rect x="945.6" y="862.2" width="2.2" height="9.6" rx="1.1" fill="#32D74B"/><rect x="949.6" y="863.9" width="2.2" height="6.3" rx="1.1" fill="#32D74B"/><rect x="953.6" y="865.2" width="2.2" height="3.5" rx="1.1" fill="#32D74B"/><rect x="957.6" y="863.5" width="2.2" height="6.9" rx="1.1" fill="#32D74B"/><rect x="961.6" y="859.9" width="2.2" height="14.1" rx="1.1" fill="#32D74B"/><rect x="965.6" y="858.9" width="2.2" height="16.1" rx="1.1" fill="#32D74B"/><rect x="969.6" y="858.9" width="2.2" height="16.3" rx="1.1" fill="#32D74B"/><rect x="973.6" y="859.8" width="2.2" height="14.3" rx="1.1" fill="#32D74B"/><rect x="977.6" y="863.1" width="2.2" height="7.8" rx="1.1" fill="#32D74B"/><rect x="981.6" y="864.6" width="2.2" height="4.8" rx="1.1" fill="#32D74B"/><rect x="985.6" y="863.9" width="2.2" height="6.2" rx="1.1" fill="#32D74B"/><rect x="989.6" y="861.5" width="2.2" height="11.1" rx="1.1" fill="#32D74B"/><rect x="993.6" y="859.3" width="2.2" height="15.3" rx="1.1" fill="#32D74B"/><rect x="997.6" y="858.5" width="2.2" height="17.0" rx="1.1" fill="#32D74B"/><rect x="1001.6" y="861.9" width="2.2" height="10.1" rx="1.1" fill="#32D74B"/><rect x="1005.6" y="861.3" width="2.2" height="11.4" rx="1.1" fill="#32D74B"/><rect x="1009.6" y="863.2" width="2.2" height="7.6" rx="1.1" fill="#32D74B"/><rect x="1013.6" y="865.1" width="2.2" height="3.8" rx="1.1" fill="#32D74B"/><rect x="1017.6" y="863.5" width="2.2" height="6.9" rx="1.1" fill="#32D74B"/><rect x="1021.6" y="861.3" width="2.2" height="11.4" rx="1.1" fill="#32D74B"/><rect x="1025.6" y="861.8" width="2.2" height="10.4" rx="1.1" fill="#32D74B"/><rect x="1029.6" y="858.4" width="2.2" height="17.3" rx="1.1" fill="#32D74B"/><rect x="1033.6" y="859.7" width="2.2" height="14.7" rx="1.1" fill="#32D74B"/><rect x="1037.6" y="862.4" width="2.2" height="9.2" rx="1.1" fill="#32D74B"/><rect x="1041.6" y="864.7" width="2.2" height="4.6" rx="1.1" fill="#32D74B"/><rect x="1045.6" y="863.5" width="2.2" height="7.0" rx="1.1" fill="#32D74B"/><rect x="1049.6" y="861.8" width="2.2" height="10.4" rx="1.1" fill="#32D74B"/><rect x="1053.6" y="859.2" width="2.2" height="15.6" rx="1.1" fill="#32D74B"/><rect x="1057.6" y="858.6" width="2.2" height="16.8" rx="1.1" fill="#32D74B"/><rect x="1061.6" y="860.4" width="2.2" height="13.2" rx="1.1" fill="#32D74B"/><rect x="1065.6" y="861.9" width="2.2" height="10.2" rx="1.1" fill="#32D74B"/><rect x="1069.6" y="863.4" width="2.2" height="7.2" rx="1.1" fill="#32D74B"/><rect x="1073.6" y="865.0" width="2.2" height="3.9" rx="1.1" fill="#32D74B"/><rect x="1077.6" y="863.5" width="2.2" height="7.0" rx="1.1" fill="#32D74B"/><rect x="1081.6" y="861.8" width="2.2" height="10.4" rx="1.1" fill="#32D74B"/><rect x="1085.6" y="859.0" width="2.2" height="16.1" rx="1.1" fill="#32D74B"/><rect x="1089.6" y="861.9" width="2.2" height="10.1" rx="1.1" fill="#32D74B"/><rect x="1093.6" y="862.5" width="2.2" height="9.0" rx="1.1" fill="#32D74B"/><rect x="1097.6" y="862.3" width="2.2" height="9.4" rx="1.1" fill="#32D74B"/><rect x="1101.6" y="864.8" width="2.2" height="4.4" rx="1.1" fill="#32D74B"/><rect x="1105.6" y="863.8" width="2.2" height="6.4" rx="1.1" fill="#32D74B"/><rect x="1109.6" y="862.0" width="2.2" height="10.0" rx="1.1" fill="#32D74B"/><rect x="1113.6" y="861.1" width="2.2" height="11.8" rx="1.1" fill="#32D74B"/><rect x="1117.6" y="858.0" width="2.2" height="18.0" rx="1.1" fill="#32D74B"/><rect x="1121.6" y="861.6" width="2.2" height="10.8" rx="1.1" fill="#32D74B"/><rect x="1125.6" y="862.0" width="2.2" height="10.1" rx="1.1" fill="#32D74B"/><rect x="1129.6" y="864.0" width="2.2" height="6.0" rx="1.1" fill="#32D74B"/><rect x="1133.6" y="864.9" width="2.2" height="4.2" rx="1.1" fill="#32D74B"/><rect x="1137.6" y="863.2" width="2.2" height="7.5" rx="1.1" fill="#32D74B"/><rect x="1141.6" y="861.6" width="2.2" height="10.9" rx="1.1" fill="#32D74B"/><rect x="1145.6" y="859.2" width="2.2" height="15.6" rx="1.1" fill="#32D74B"/><rect x="1149.6" y="860.8" width="2.2" height="12.3" rx="1.1" fill="#32D74B"/><rect x="1165.1066666666666" y="852" width="190.9" height="30" rx="6" fill="#32D74B" fill-opacity=".16" stroke="#32D74B" stroke-opacity=".4"/><rect x="1171.1" y="859.8" width="2.2" height="14.5" rx="1.1" fill="#32D74B"/><rect x="1175.1" y="860.6" width="2.2" height="12.9" rx="1.1" fill="#32D74B"/><rect x="1179.1" y="862.6" width="2.2" height="8.9" rx="1.1" fill="#32D74B"/><rect x="1183.1" y="865.2" width="2.2" height="3.6" rx="1.1" fill="#32D74B"/><rect x="1187.1" y="862.9" width="2.2" height="8.1" rx="1.1" fill="#32D74B"/><rect x="1191.1" y="860.2" width="2.2" height="13.5" rx="1.1" fill="#32D74B"/><rect x="1195.1" y="862.1" width="2.2" height="9.7" rx="1.1" fill="#32D74B"/><rect x="1199.1" y="860.2" width="2.2" height="13.6" rx="1.1" fill="#32D74B"/><rect x="1203.1" y="859.1" width="2.2" height="15.7" rx="1.1" fill="#32D74B"/><rect x="1207.1" y="861.8" width="2.2" height="10.4" rx="1.1" fill="#32D74B"/><rect x="1211.1" y="863.8" width="2.2" height="6.4" rx="1.1" fill="#32D74B"/><rect x="1215.1" y="864.6" width="2.2" height="4.7" rx="1.1" fill="#32D74B"/><rect x="1219.1" y="862.4" width="2.2" height="9.3" rx="1.1" fill="#32D74B"/><rect x="1223.1" y="861.7" width="2.2" height="10.7" rx="1.1" fill="#32D74B"/><rect x="1227.1" y="859.9" width="2.2" height="14.2" rx="1.1" fill="#32D74B"/><rect x="1231.1" y="860.0" width="2.2" height="14.0" rx="1.1" fill="#32D74B"/><rect x="1235.1" y="862.9" width="2.2" height="8.3" rx="1.1" fill="#32D74B"/><rect x="1239.1" y="863.6" width="2.2" height="6.7" rx="1.1" fill="#32D74B"/><rect x="1243.1" y="865.4" width="2.2" height="3.3" rx="1.1" fill="#32D74B"/><rect x="1247.1" y="862.6" width="2.2" height="8.9" rx="1.1" fill="#32D74B"/><rect x="1251.1" y="860.6" width="2.2" height="12.8" rx="1.1" fill="#32D74B"/><rect x="1255.1" y="861.6" width="2.2" height="10.8" rx="1.1" fill="#32D74B"/><rect x="1259.1" y="858.9" width="2.2" height="16.3" rx="1.1" fill="#32D74B"/><rect x="1263.1" y="862.0" width="2.2" height="10.0" rx="1.1" fill="#32D74B"/><rect x="1267.1" y="862.0" width="2.2" height="10.1" rx="1.1" fill="#32D74B"/><rect x="1271.1" y="864.6" width="2.2" height="4.8" rx="1.1" fill="#32D74B"/><rect x="1275.1" y="864.7" width="2.2" height="4.6" rx="1.1" fill="#32D74B"/><rect x="1279.1" y="861.3" width="2.2" height="11.3" rx="1.1" fill="#32D74B"/><rect x="1283.1" y="861.8" width="2.2" height="10.5" rx="1.1" fill="#32D74B"/><rect x="1287.1" y="861.2" width="2.2" height="11.6" rx="1.1" fill="#32D74B"/><rect x="1291.1" y="858.4" width="2.2" height="17.1" rx="1.1" fill="#32D74B"/><rect x="1295.1" y="860.3" width="2.2" height="13.4" rx="1.1" fill="#32D74B"/><rect x="1299.1" y="863.6" width="2.2" height="6.8" rx="1.1" fill="#32D74B"/><rect x="1303.1" y="865.3" width="2.2" height="3.4" rx="1.1" fill="#32D74B"/><rect x="1307.1" y="863.1" width="2.2" height="7.8" rx="1.1" fill="#32D74B"/><rect x="1311.1" y="860.8" width="2.2" height="12.4" rx="1.1" fill="#32D74B"/><rect x="1315.1" y="861.4" width="2.2" height="11.2" rx="1.1" fill="#32D74B"/><rect x="1319.1" y="858.3" width="2.2" height="17.4" rx="1.1" fill="#32D74B"/><rect x="1323.1" y="860.1" width="2.2" height="13.7" rx="1.1" fill="#32D74B"/><rect x="1327.1" y="861.2" width="2.2" height="11.6" rx="1.1" fill="#32D74B"/><rect x="1331.1" y="864.1" width="2.2" height="5.9" rx="1.1" fill="#32D74B"/><rect x="1335.1" y="864.4" width="2.2" height="5.3" rx="1.1" fill="#32D74B"/><rect x="1339.1" y="862.5" width="2.2" height="9.0" rx="1.1" fill="#32D74B"/><rect x="1343.1" y="861.9" width="2.2" height="10.2" rx="1.1" fill="#32D74B"/><rect x="420" y="902" width="936" height="22" rx="6" fill="#BF5AF2" fill-opacity=".16" stroke="#BF5AF2" stroke-opacity=".4"/><text x="430" y="917" font-size="10.5" fill="#BF5AF2">ambiance marché · volume 0,09 — le mix creuse la voix automatiquement</text><rect x="436.8" y="944" width="26" height="22" rx="6" fill="#FFB340" fill-opacity=".18" stroke="#FFB340" stroke-opacity=".45"/><g transform="translate(441.8,948) scale(.6)"><g fill="none" stroke="#FFB340" stroke-width="2.2" stroke-linecap="round" stroke-linejoin="round"><path d="M4.5 9.5h3.5l4-3.5v12l-4-3.5H4.5z"/><path d="M15.5 9a4 4 0 010 6"/></g></g><rect x="737.6" y="944" width="26" height="22" rx="6" fill="#FFB340" fill-opacity=".18" stroke="#FFB340" stroke-opacity=".45"/><g transform="translate(742.6,948) scale(.6)"><g fill="none" stroke="#FFB340" stroke-width="2.2" stroke-linecap="round" stroke-linejoin="round"><path d="M4.5 9.5h3.5l4-3.5v12l-4-3.5H4.5z"/><path d="M15.5 9a4 4 0 010 6"/></g></g><rect x="1000.8" y="944" width="26" height="22" rx="6" fill="#FFB340" fill-opacity=".18" stroke="#FFB340" stroke-opacity=".45"/><g transform="translate(1005.8,948) scale(.6)"><g fill="none" stroke="#FFB340" stroke-width="2.2" stroke-linecap="round" stroke-linejoin="round"><path d="M4.5 9.5h3.5l4-3.5v12l-4-3.5H4.5z"/><path d="M15.5 9a4 4 0 010 6"/></g></g><rect x="1226.4" y="944" width="26" height="22" rx="6" fill="#FFB340" fill-opacity=".18" stroke="#FFB340" stroke-opacity=".45"/><g transform="translate(1231.4,948) scale(.6)"><g fill="none" stroke="#FFB340" stroke-width="2.2" stroke-linecap="round" stroke-linejoin="round"><path d="M4.5 9.5h3.5l4-3.5v12l-4-3.5H4.5z"/><path d="M15.5 9a4 4 0 010 6"/></g></g><line x1="643.6" y1="766" x2="643.6" y2="978" stroke="#FF3B30" stroke-width="2"/><path d="M636.6 762 h14 l-7 10 z" fill="#FF3B30"/><text x="326" y="1006" class="note">Scrub : toute position du curseur rend une image exacte — temps déclaré, jamais accumulé.</text><text x="326" y="1024" class="note">Panneau de code masqué : jamais d’éditeur HTML/CSS/JS côté client. Chargé en lazy, version épinglée.</text></svg>